<svg xmlns="http://www.w3.org/2000/svg" width="28.487" height="54.989" viewBox="0 0 28.487 54.989">
  <path id="Garden" d="M53.4,15.713a.86.86,0,0,0-.1.017,11.592,11.592,0,0,0-3.926,1.384,11.8,11.8,0,0,0-5.821,10.681,11.221,11.221,0,0,0-8.864-4.366h0a11.059,11.059,0,0,0-3.9.719.86.86,0,0,0-.554.9A11.312,11.312,0,0,0,41.416,35.133h0a11.021,11.021,0,0,0,2.734-.356v10.13h-11.6A1.368,1.368,0,0,0,31.2,46.26v4.165a1.368,1.368,0,0,0,1.35,1.354h.591L35.246,70.7H54.7l2.109-18.923h.558a1.368,1.368,0,0,0,1.35-1.354V46.26a1.368,1.368,0,0,0-1.35-1.354H45.873V42.626a7.868,7.868,0,0,0,1.676.208h0a7.826,7.826,0,0,0,7.789-6.892.86.86,0,0,0-.558-.907,7.914,7.914,0,0,0-2.71-.487h0a7.856,7.856,0,0,0-6.2,3.023V33.665a.86.86,0,0,0,0-.131v-.846a11.564,11.564,0,0,0,3.54-1.306h0a11.935,11.935,0,0,0,4.8-15.151.86.86,0,0,0-.823-.514Zm-.571,1.968a10.1,10.1,0,0,1-4.272,12.206,7.776,7.776,0,0,1-1.79.692l4.2-5.508a.861.861,0,1,0-1.37-1.041l-4.02,5.283A9.99,9.99,0,0,1,50.226,18.6,9.835,9.835,0,0,1,52.825,17.681ZM34.685,25.147h0a9.4,9.4,0,0,1,8.743,6.1l-4.951-2.63a.86.86,0,1,0-.806,1.518l5.612,2.982a7.635,7.635,0,0,1-1.871.3,9.485,9.485,0,0,1-9.246-7.8A9.419,9.419,0,0,1,34.685,25.147ZM52.069,36.264v0h0a6.1,6.1,0,0,1,1.176.212,5.956,5.956,0,0,1-5.693,4.635,2.541,2.541,0,0,1-.406-.054l2.7-1.6a.861.861,0,1,0-.873-1.485l-1.8,1.065A5.735,5.735,0,0,1,52.069,36.264ZM32.918,46.626H56.993v3.429H32.918Zm1.948,5.152H55.075l-1.918,17.2H36.784Z" transform="translate(-30.226 -15.713)" fill="#0c467f"/>
</svg>
