<svg xmlns="http://www.w3.org/2000/svg" width="26.078" height="60.849" viewBox="0 0 26.078 60.849">
  <path id="glass" d="M174.126,69.622c0-2.985,2.779-5.253,5.466-7.446a32.835,32.835,0,0,0,2.923-2.575c3.606-3.762,3.563-7.028,3.563-9.651v-.563c0-6.01-4.186-16.918-4.349-17.385H164.346c-.163.468-4.346,11.341-4.346,17.385v.563c0,2.618-.044,5.889,3.562,9.651a32.851,32.851,0,0,0,2.923,2.575c2.688,2.194,5.467,4.462,5.467,7.446V90.676h-9.779v2.173H183.9V90.676h-9.779ZM165.8,34.173h14.468a100.5,100.5,0,0,1,3.373,13.039H162.43A100.506,100.506,0,0,1,165.8,34.173Zm7.235,30.617a1.332,1.332,0,0,1-.974-.374v0a28.962,28.962,0,0,0-4.207-3.928,31.409,31.409,0,0,1-2.729-2.4c-3-3.125-2.978-5.557-2.96-8.132,0-.194-.009-.387,0-.578H183.9c.012.191,0,.384,0,.578.018,2.575.035,5.007-2.96,8.132a31.4,31.4,0,0,1-2.728,2.4,28.967,28.967,0,0,0-4.206,3.928v0A1.322,1.322,0,0,1,173.039,64.79Z" transform="translate(-160 -32)" fill="#0c467f"/>
</svg>
