<svg xmlns="http://www.w3.org/2000/svg" width="38.071" height="37.719" viewBox="0 0 38.071 37.719">
  <path id="home" d="M42.376,18.284l-2.211-1.8V10.527a1.588,1.588,0,1,0-3.164,0V13.85L31.274,9.212a7.938,7.938,0,0,0-10.048,0l-11.1,9.073a7.848,7.848,0,0,0-2.9,6.1V37.2a7.939,7.939,0,0,0,7.938,7.939H37.352A7.938,7.938,0,0,0,45.291,37.2V24.34A7.848,7.848,0,0,0,42.376,18.284ZM21.5,41.907V30.929a4.763,4.763,0,0,1,9.515,0V41.907Zm20.629-4.752a4.763,4.763,0,0,1-4.752,4.752H34.188V30.929a7.938,7.938,0,1,0-15.877,0V41.907H15.136a4.763,4.763,0,0,1-4.763-4.752V24.34a4.752,4.752,0,0,1,1.746-3.686l11.1-9.073a4.774,4.774,0,0,1,6.011,0l11.1,9.073a4.752,4.752,0,0,1,1.792,3.686Z" transform="translate(-7.22 -7.42)" fill="#0c467f"/>
</svg>
