<svg xmlns="http://www.w3.org/2000/svg" width="24.333" height="24.333" viewBox="0 0 24.333 24.333">
  <path id="Icon_awesome-whatsapp-white" data-name="Icon awesome-whatsapp-white" d="M20.688,5.786A12.062,12.062,0,0,0,1.711,20.337L0,26.583,6.393,24.9a12.021,12.021,0,0,0,5.763,1.466h.005A12.174,12.174,0,0,0,24.333,14.313a12.105,12.105,0,0,0-3.645-8.527ZM12.161,24.34a10,10,0,0,1-5.106-1.4l-.364-.217L2.9,23.721l1.01-3.7-.239-.38A10.042,10.042,0,1,1,22.3,14.313,10.134,10.134,0,0,1,12.161,24.34Zm5.5-7.506c-.3-.152-1.782-.88-2.059-.978s-.478-.152-.679.152-.777.978-.956,1.184-.353.228-.652.076a8.2,8.2,0,0,1-4.1-3.585c-.31-.532.31-.494.885-1.646a.558.558,0,0,0-.027-.527c-.076-.152-.679-1.635-.929-2.238-.244-.587-.494-.505-.679-.516s-.375-.011-.576-.011a1.116,1.116,0,0,0-.8.375,3.386,3.386,0,0,0-1.054,2.515,5.9,5.9,0,0,0,1.228,3.118A13.463,13.463,0,0,0,12.405,19.3c1.912.826,2.661.9,3.617.755a3.086,3.086,0,0,0,2.031-1.434,2.52,2.52,0,0,0,.174-1.434C18.157,17.056,17.956,16.98,17.658,16.834Z" transform="translate(0 -2.25)" fill="#fff"/>
</svg>
