<svg xmlns="http://www.w3.org/2000/svg" width="61.707" height="50.434" viewBox="0 0 61.707 50.434">
  <g id="kitchen" transform="translate(-3.5 -12)">
    <path id="Path_93" data-name="Path 93" d="M14.68,12H10.255A6.768,6.768,0,0,0,3.5,18.748v6.96a3.45,3.45,0,0,0,3.45,3.45H8.6v32.28a1,1,0,0,0,1.991,0V29.159h1.639a3.45,3.45,0,0,0,3.45-3.45V12.989A1,1,0,0,0,14.68,12Zm-1,13.715a1.46,1.46,0,0,1-1.46,1.46H6.95a1.466,1.466,0,0,1-1.46-1.46V18.748a4.771,4.771,0,0,1,4.764-4.757h3.43ZM31.2,12H29.3a1,1,0,1,0,0,1.991h.9v1.858h-.9a1,1,0,1,0,0,1.991h.9V19.7h-.9a1,1,0,1,0,0,1.991h.9V56.343a4.1,4.1,0,1,1-8.2,0V21.687h.9a1,1,0,1,0,0-1.991H22V17.832h.9a1,1,0,0,0,0-1.991H22V13.991h.9a1,1,0,0,0,0-1.991H21a1,1,0,0,0-1,1V56.343a6.091,6.091,0,0,0,12.182,0V12.989A1,1,0,0,0,31.2,12ZM47.7,12H37.512a1,1,0,0,0-1,1V28.163a1,1,0,0,0,1,1h4.1v32.28a1,1,0,0,0,1.991,0V29.159h4.1a1,1,0,0,0,1-1V12.989A1,1,0,0,0,47.7,12Zm-1,15.175h-8.2V13.991h8.2Z" fill="#0c467f"/>
    <path id="Path_94" data-name="Path 94" d="M59.5,22.251H62.68a1,1,0,1,0,0-1.991H59.5a1,1,0,1,0,0,1.991Zm0-3.848H62.68a1,1,0,1,0,0-1.991H59.5a1,1,0,1,0,0,1.991ZM77.623,12a6.091,6.091,0,0,0-6.084,6.091c0,2.827,4.074,8.918,5.089,10.391V61.439a1,1,0,0,0,1.991,0V28.475c1.015-1.473,5.1-7.564,5.1-10.391A6.1,6.1,0,0,0,77.623,12Zm0,11.207a34.635,34.635,0,0,1-.664-5.116,9.448,9.448,0,0,1,.664-3.868,9.336,9.336,0,0,1,.664,3.868,34.635,34.635,0,0,1-.664,5.109Zm-4.094-5.116a4.081,4.081,0,0,1,1.831-3.437,13.934,13.934,0,0,0-.391,3.41,33.323,33.323,0,0,0,.61,4.97c-1.141-1.991-2.05-3.948-2.05-4.95Zm6.144,4.97a33.175,33.175,0,0,0,.6-4.97,14.292,14.292,0,0,0-.385-3.437,4.094,4.094,0,0,1,1.831,3.41c0,1.022-.916,2.979-2.05,4.99Z" transform="translate(-18.507)" fill="#0c467f"/>
  </g>
</svg>
