<svg id="logo-mockup" xmlns="http://www.w3.org/2000/svg" width="88" height="88" viewBox="0 0 88 88">
  <path id="Path_107" data-name="Path 107" d="M63.188,59.5h-5.5a1.375,1.375,0,0,0,0,2.75h3.891a4.125,4.125,0,1,1-3.891-5.5,4.07,4.07,0,0,1,1.781.406,1.375,1.375,0,0,0,1.189-2.468A6.806,6.806,0,0,0,57.688,54a6.875,6.875,0,1,0,6.875,6.875A1.375,1.375,0,0,0,63.187,59.5ZM33.625,65H26.75V55.375a1.375,1.375,0,0,0-2.75,0v11a1.375,1.375,0,0,0,1.375,1.375h8.25a1.375,1.375,0,0,0,0-2.75Zm8.25-11a6.875,6.875,0,1,0,6.875,6.875A6.875,6.875,0,0,0,41.875,54Zm0,11A4.125,4.125,0,1,1,46,60.875,4.125,4.125,0,0,1,41.875,65ZM73.5,54a6.875,6.875,0,1,0,6.875,6.875A6.875,6.875,0,0,0,73.5,54Zm0,11a4.125,4.125,0,1,1,4.125-4.125A4.125,4.125,0,0,1,73.5,65Z" transform="translate(-7.5 -16.875)" fill="#fff"/>
  <path id="Path_108" data-name="Path 108" d="M44,0A44,44,0,1,0,88,44,44,44,0,0,0,44,0Zm0,85.25A41.25,41.25,0,1,1,85.25,44,41.25,41.25,0,0,1,44,85.25Z" fill="#fff"/>
</svg>
