<svg xmlns="http://www.w3.org/2000/svg" width="40.838" height="42.833" viewBox="0 0 40.838 42.833">
  <g id="offers" transform="translate(-507.525 -483.466)">
    <path id="Path_95" data-name="Path 95" d="M877.555,492.611a1.037,1.037,0,0,1-.9-1.555l4.083-7.072a1.037,1.037,0,0,1,1.8,0l4.083,7.072a1.037,1.037,0,1,1-1.8,1.036l-3.185-5.517-3.185,5.517A1.036,1.036,0,0,1,877.555,492.611Z" transform="translate(-353.695)" fill="#ab1b1e"/>
    <path id="Path_96" data-name="Path 96" d="M687.974,587.536a1.037,1.037,0,0,1-1.03-.928l-.854-8.121a1.037,1.037,0,0,1,1.453-1.055l7.46,3.322a1.037,1.037,0,0,1-.843,1.894l-5.82-2.591.666,6.336a1.037,1.037,0,0,1-.923,1.139A1.073,1.073,0,0,1,687.974,587.536Z" transform="translate(-171.156 -89.983)" fill="#ab1b1e"/>
    <path id="Path_97" data-name="Path 97" d="M514.026,791.993a1.034,1.034,0,0,1-.771-.343l-5.464-6.069a1.037,1.037,0,0,1,.555-1.708l7.988-1.7a1.037,1.037,0,1,1,.431,2.028l-6.232,1.325,4.263,4.734a1.037,1.037,0,0,1-.77,1.73Z" transform="translate(0 -286.303)" fill="#ab1b1e"/>
    <path id="Path_98" data-name="Path 98" d="M516.55,990.37a1.04,1.04,0,0,1-.216-.023l-7.988-1.7a1.037,1.037,0,0,1-.555-1.708l5.464-6.069a1.037,1.037,0,1,1,1.541,1.387l-4.263,4.734,6.232,1.325a1.037,1.037,0,0,1-.214,2.051Z" transform="translate(0 -476.455)" fill="#ab1b1e"/>
    <path id="Path_99" data-name="Path 99" d="M687.121,1186.979a1.036,1.036,0,0,1-1.031-1.145l.854-8.121a1.037,1.037,0,0,1,2.062.217l-.666,6.336,5.82-2.591a1.037,1.037,0,0,1,.843,1.894l-7.46,3.321A1.034,1.034,0,0,1,687.121,1186.979Z" transform="translate(-171.156 -664.572)" fill="#ab1b1e"/>
    <path id="Path_100" data-name="Path 100" d="M881.638,1305.105a1.037,1.037,0,0,1-.9-.518l-4.083-7.072a1.037,1.037,0,1,1,1.8-1.036l3.185,5.517,3.185-5.517a1.037,1.037,0,0,1,1.8,1.036l-4.083,7.072A1.036,1.036,0,0,1,881.638,1305.105Z" transform="translate(-353.694 -778.806)" fill="#ab1b1e"/>
    <path id="Path_101" data-name="Path 101" d="M1092.478,1186.979a1.036,1.036,0,0,1-.422-.09l-7.46-3.321a1.037,1.037,0,0,1,.843-1.894l5.82,2.591-.666-6.336a1.037,1.037,0,0,1,2.062-.217l.854,8.121a1.036,1.036,0,0,1-1.031,1.145Z" transform="translate(-552.555 -664.572)" fill="#ab1b1e"/>
    <path id="Path_102" data-name="Path 102" d="M1250.856,990.371a1.037,1.037,0,0,1-.214-2.051l6.231-1.325-4.263-4.734a1.037,1.037,0,1,1,1.541-1.387l5.464,6.069a1.036,1.036,0,0,1-.555,1.707l-7.988,1.7A1.036,1.036,0,0,1,1250.856,990.371Z" transform="translate(-711.518 -476.455)" fill="#ab1b1e"/>
    <path id="Path_103" data-name="Path 103" d="M1253.381,791.992a1.036,1.036,0,0,1-.77-1.73l4.263-4.734-6.231-1.325a1.037,1.037,0,0,1,.431-2.028l7.988,1.7a1.037,1.037,0,0,1,.555,1.708l-5.464,6.069A1.034,1.034,0,0,1,1253.381,791.992Z" transform="translate(-711.519 -286.302)" fill="#ab1b1e"/>
    <path id="Path_104" data-name="Path 104" d="M1091.63,587.537a1.037,1.037,0,0,1-1.032-1.145l.666-6.336-5.82,2.591a1.037,1.037,0,1,1-.843-1.894l7.46-3.321a1.037,1.037,0,0,1,1.452,1.055l-.854,8.121A1.037,1.037,0,0,1,1091.63,587.537Z" transform="translate(-552.559 -89.984)" fill="#ab1b1e"/>
    <g id="Group_123" data-name="Group 123" transform="translate(520.874 498)">
      <path id="Path_105" data-name="Path 105" d="M840.364,848.575a2.687,2.687,0,0,1-2.1-.867,3.325,3.325,0,0,1-.782-2.316,3.573,3.573,0,0,1,.827-2.494,2.864,2.864,0,0,1,2.231-.911,2.678,2.678,0,0,1,2.111.845,3.451,3.451,0,0,1,.751,2.373,3.491,3.491,0,0,1-.84,2.449A2.838,2.838,0,0,1,840.364,848.575Zm.124-5.609a1.6,1.6,0,0,0-1.333.627,2.729,2.729,0,0,0-.489,1.72,2.617,2.617,0,0,0,.48,1.676,1.584,1.584,0,0,0,1.307.6,1.547,1.547,0,0,0,1.307-.622,2.8,2.8,0,0,0,.471-1.725,2.671,2.671,0,0,0-.467-1.676A1.529,1.529,0,0,0,840.489,842.966Zm8.41-.782L840.72,855.02h-1.271l8.169-12.837Zm-.942,12.943a2.68,2.68,0,0,1-2.1-.871,3.329,3.329,0,0,1-.782-2.311,3.582,3.582,0,0,1,.836-2.5,2.857,2.857,0,0,1,2.222-.92,2.668,2.668,0,0,1,2.107.853,4.059,4.059,0,0,1-.084,4.832A2.839,2.839,0,0,1,847.956,855.127Zm.124-5.6a1.6,1.6,0,0,0-1.338.622,2.743,2.743,0,0,0-.485,1.725,2.586,2.586,0,0,0,.48,1.658,1.584,1.584,0,0,0,1.307.6,1.543,1.543,0,0,0,1.307-.627,2.8,2.8,0,0,0,.471-1.72,2.628,2.628,0,0,0-.467-1.671A1.541,1.541,0,0,0,848.08,849.527Z" transform="translate(-837.152 -841.656)" fill="#ab1b1e"/>
      <path id="Path_106" data-name="Path 106" d="M840.288,847.791a3.01,3.01,0,0,1-2.345-.981,3.663,3.663,0,0,1-.867-2.533,3.916,3.916,0,0,1,.922-2.725,3.187,3.187,0,0,1,2.468-1.029,3,3,0,0,1,2.355.965,4.384,4.384,0,0,1-.088,5.275A3.169,3.169,0,0,1,840.288,847.791Zm.178-6.6a2.518,2.518,0,0,0-1.977.811,3.28,3.28,0,0,0-.75,2.279,2.985,2.985,0,0,0,.7,2.09,2.343,2.343,0,0,0,1.851.761,2.5,2.5,0,0,0,1.955-.812A3.133,3.133,0,0,0,843,844.1a3.186,3.186,0,0,0-.672-2.171A2.332,2.332,0,0,0,840.466,841.186Zm-7.232,6.5h-2.057l8.592-13.5h2.067Zm-.849-.663h.485l7.756-12.173h-.493Zm7.992-.226a1.908,1.908,0,0,1-1.566-.725,2.915,2.915,0,0,1-.553-1.865,3.073,3.073,0,0,1,.555-1.928,1.925,1.925,0,0,1,1.6-.75,1.865,1.865,0,0,1,1.535.712,2.955,2.955,0,0,1,.539,1.878,3.134,3.134,0,0,1-.538,1.919A1.866,1.866,0,0,1,840.376,846.8Zm.036-4.6a1.275,1.275,0,0,0-1.076.494,2.44,2.44,0,0,0-.415,1.521,2.282,2.282,0,0,0,.407,1.451,1.258,1.258,0,0,0,1.048.475,1.218,1.218,0,0,0,1.042-.494,2.5,2.5,0,0,0,.4-1.521,2.328,2.328,0,0,0-.395-1.465A1.216,1.216,0,0,0,840.412,842.191Zm-7.716-.952a3.017,3.017,0,0,1-2.344-.976,3.659,3.659,0,0,1-.868-2.538,3.907,3.907,0,0,1,.913-2.716,3.2,3.2,0,0,1,2.477-1.02,3.007,3.007,0,0,1,2.359.956,3.783,3.783,0,0,1,.835,2.594,3.826,3.826,0,0,1-.927,2.673A3.17,3.17,0,0,1,832.7,841.24Zm.178-6.587a2.525,2.525,0,0,0-1.986.8,3.271,3.271,0,0,0-.741,2.271,3.021,3.021,0,0,0,.7,2.093,2.349,2.349,0,0,0,1.852.757,2.5,2.5,0,0,0,1.955-.812,3.732,3.732,0,0,0,.086-4.379A2.343,2.343,0,0,0,832.874,834.652Zm-.089,5.6a1.908,1.908,0,0,1-1.566-.724,2.946,2.946,0,0,1-.553-1.883,3.059,3.059,0,0,1,.559-1.924,1.923,1.923,0,0,1,1.595-.754,1.852,1.852,0,0,1,1.537.728,3,3,0,0,1,.537,1.879,3.13,3.13,0,0,1-.538,1.925A1.87,1.87,0,0,1,832.785,840.253Zm.036-4.623a1.274,1.274,0,0,0-1.072.5,2.426,2.426,0,0,0-.419,1.516,2.315,2.315,0,0,0,.407,1.468,1.258,1.258,0,0,0,1.048.476,1.222,1.222,0,0,0,1.042-.491,2.5,2.5,0,0,0,.4-1.524,2.368,2.368,0,0,0-.4-1.472A1.2,1.2,0,0,0,832.82,835.63Z" transform="translate(-829.484 -833.989)" fill="#ab1b1e"/>
    </g>
  </g>
</svg>
