<svg xmlns="http://www.w3.org/2000/svg" width="49.626" height="67.838" viewBox="0 0 49.626 67.838">
  <g id="plastics" transform="translate(0.651 -67.875) rotate(25)">
    <path id="Path_80" data-name="Path 80" d="M405.046,349.711a2.676,2.676,0,0,0-4.507,0c-.924,1.572-3.8,6.951-2,10.1.541.943,1.716,2.067,4.25,2.067s3.711-1.124,4.251-2.067C408.844,356.662,405.971,351.28,405.046,349.711Zm-.372,8.746c-.263.46-.9.694-1.876.694s-1.618-.234-1.876-.694c-.657-1.148.133-4.151,1.876-7.188C404.542,354.3,405.331,357.3,404.675,358.458Z" transform="translate(-338.231 -261.24)" fill="#0c467f"/>
    <path id="Path_81" data-name="Path 81" d="M75.144,74.053A2.459,2.459,0,0,0,77.6,71.6v-7.5a4.013,4.013,0,0,0-2.515-3.729V58.587a3.319,3.319,0,0,0-3.325-3.32H68.885V51.729a1.194,1.194,0,0,0-1.194-1.194H62.124a1.194,1.194,0,0,0-1.194,1.194v3.538h-2.85a3.32,3.32,0,0,0-3.317,3.315v1.775a4.014,4.014,0,0,0-2.531,3.729v7.5a2.459,2.459,0,0,0,2.456,2.457.068.068,0,0,1,.068.068v4.649a.072.072,0,0,1-.065.07h0a1.08,1.08,0,0,0-.13,0A2.456,2.456,0,0,0,52.233,81.3v27.326a4.945,4.945,0,0,0,4.945,4.935H72.669a4.945,4.945,0,0,0,4.933-4.935V81.3a2.459,2.459,0,0,0-2.456-2.456.07.07,0,0,1-.068-.07V74.121A.068.068,0,0,1,75.144,74.053ZM63.318,52.922H66.5v2.345H63.318Zm-6.163,5.665a.929.929,0,0,1,.929-.928H71.759a.929.929,0,0,1,.929.928v1.535H57.151Zm4.192,15.465H72.7V78.77a2.461,2.461,0,0,0,2.456,2.457.067.067,0,0,1,.068.068v27.326a2.558,2.558,0,0,1-2.546,2.548h-15.5a2.558,2.558,0,0,1-2.558-2.548V81.3a.068.068,0,0,1,.068-.068H68.875a1.194,1.194,0,1,0,0-2.387H57.148V74.121a2.459,2.459,0,0,0-2.456-2.456.068.068,0,0,1-.068-.07v-7.5a1.625,1.625,0,0,1,1.247-1.579.679.679,0,0,0,.084,0H73.89a.716.716,0,0,0,.085,0,1.623,1.623,0,0,1,1.245,1.579v7.5a.068.068,0,0,1-.065.07H61.343a1.194,1.194,0,1,0,0,2.387Z" transform="translate(0 0)" fill="#0c467f"/>
  </g>
</svg>
