<svg id="logo-white" xmlns="http://www.w3.org/2000/svg" xmlns:xlink="http://www.w3.org/1999/xlink" width="251.649" height="75.391" viewBox="0 0 251.649 75.391">
  <defs>
    <clipPath id="clip-path">
      <rect id="Rectangle_1094" data-name="Rectangle 1094" width="251.649" height="75.391" fill="none"/>
    </clipPath>
  </defs>
  <g id="Group_148" data-name="Group 148" clip-path="url(#clip-path)">
    <path id="Path_157" data-name="Path 157" d="M194.412,245.938l0,0s0,.007,0,.01l.034.015Zm0,0,0,0s0,.007,0,.01l.034.015Zm0,0,0,0s0,.007,0,.01l.034.015Zm-9.072,11.107s.012-.007.017-.012v-.007Zm9.072-11.107,0,0s0,.007,0,.01l.034.015Z" transform="translate(-139.736 -185.419)" fill="#fff"/>
    <path id="Path_158" data-name="Path 158" d="M31.414,111.61a2.836,2.836,0,0,0-.965-2.406l-.007-.007a4.152,4.152,0,0,0-.694-.657q-6.337-3.676-12.687-7.325l-.01,0c-2.862-1.7-5.7-3.435-8.587-5.088a28.241,28.241,0,0,0-5.157-2.793c-1.929-.627-3.273.381-3.273,2.372,0,10.78.022,21.557-.034,32.337a2.471,2.471,0,0,0,1.393,2.448c4.306,2.48,8.587,5,12.891,7.49,2.756,1.59,5.539,3.137,8.309,4.7,1.449.861,2.867,1.786,4.363,2.559a2.679,2.679,0,0,0,3.494-.667,2.683,2.683,0,0,0,.965-2.392q.018-15.291,0-30.578m-7.8,26.218c-1.629-.935-3.241-1.87-4.865-2.778-.276-.155-.266-.369-.293-.61-.052-.487-.085-1.016-.117-1.484-.066-.952-.131-2.026-.152-2.521-.036-.839-.285-.9-.92-1.3-.469-.3-4.869-2.478-6.109-3.262-.549-.349-.88-.329-1.22.224-.421.684-.756,1.18-1.218,1.949s-.812.787-1.439.416c-1.139-.677-2.266-1.375-3.423-2.015-.647-.357-.613-.662-.209-1.235q5.994-8.522,11.924-17.094c.416-.6.706-.586,1.26-.224a25.392,25.392,0,0,0,2.963,1.717,2.076,2.076,0,0,1,1.233,1.912c.44,4.682.886,9.36,1.38,14.035.418,3.971.9,7.935,1.353,11.9a.575.575,0,0,1,0,.315.1.1,0,0,1-.146.049" transform="translate(0 -70.229)" fill="#fff"/>
    <path id="Path_159" data-name="Path 159" d="M196.825,74.643s0,0,0,0v0Z" transform="translate(-148.391 -56.276)" fill="#fff"/>
    <path id="Path_160" data-name="Path 160" d="M196.825,74.643s0,0,0,0v0Z" transform="translate(-148.391 -56.276)" fill="#fff"/>
    <path id="Path_161" data-name="Path 161" d="M222.234,245.995l-.064-.037a.019.019,0,0,1,.01,0l.025.02.007,0Z" transform="translate(-167.503 -185.434)" fill="#fff"/>
    <path id="Path_162" data-name="Path 162" d="M222.2,245.973l-.034-.015a.019.019,0,0,1,.01,0Z" transform="translate(-167.503 -185.434)" fill="#fff"/>
    <path id="Path_163" data-name="Path 163" d="M187.5,266.2h0s0,0,0,0" transform="translate(-141.362 -200.698)" fill="#fff"/>
    <path id="Path_164" data-name="Path 164" d="M174.564,127.453c0-10.31.005-20.114,0-30.423a3.687,3.687,0,0,0-.9-2.529c-.8-.9-2.14-1.653-4.421-.327-7.4,4.3-14.81,8.575-22.194,12.9a12.757,12.757,0,0,0-3.644,2.409,2.294,2.294,0,0,0-.76,1.959q.011,15.719,0,31.439a2.624,2.624,0,0,0,.285,1.3c1.011,1.872,3.029,2.138,5.111.65,1.238-.652,22.323-12.874,24.566-14.173a3.7,3.7,0,0,0,1.959-3.2m-6.924.34c-.9.509-4.468,2.558-8.057,4.637-3.686,2.135-7.386,4.3-7.656,4.511-.746.411-1.009.256-1.009-.657.007-7.78-.032-15.561-.054-23.341,0-.4-.074-.8.391-1.065,2.052-1.156,4.089-2.338,6.309-3.612v17.76c3.445-2.018,6.658-3.9,9.872-5.787.9-.5,1.129-.162,1.1.778q-.089,2.624,0,5.251a1.494,1.494,0,0,1-.9,1.526" transform="translate(-107.542 -70.46)" fill="#fff"/>
    <path id="Path_165" data-name="Path 165" d="M57.314,193.585c-1.048-.623-2.114-1.216-3.169-1.823-.379-.214-.689-.411-.337-.937,1.122-1.685,2.207-3.393,3.307-5.091.111.015.219.03.327.047q.288,3.691.573,7.379c.044.6-.165.743-.7.426" transform="translate(-40.452 -140.032)" fill="#fff"/>
    <path id="Path_166" data-name="Path 166" d="M72.842,15.247A10.587,10.587,0,0,0,70.268,13c-3.656-2.151-7.337-4.264-11-6.4a1.384,1.384,0,0,0-1.59.015c-1.11.689-2.271,1.289-3.4,1.941-6.572,3.8-13.149,7.581-19.7,11.412a2.048,2.048,0,0,1-2.456-.01c-1.12-.746-2.306-1.393-3.465-2.077-1.334-.787-1.331-.832.017-1.614Q38.951,10.31,49.225,4.351c.659-.384,1.25-.886,1.914-1.262a1.249,1.249,0,0,0,.239-.17l.5-.3c-.145-.081-.285-.162-.426-.244-1.09-.615-2.035-1.142-2.97-1.683-.044-.027-.091-.052-.135-.076C46.462-.422,45-.06,43.094,1.052,40.687,2.457,19.4,14.9,18.268,15.914a1.626,1.626,0,0,0-.064,2.729,10.8,10.8,0,0,0,2.273,1.649c3.947,2.313,7.9,4.609,11.836,6.941a1.669,1.669,0,0,0,1.919.007c2.355-1.38,4.744-2.707,7.121-4.053.113-.062,14.3-8.339,14.677-8.565,1.936-1.161,1.87-1.108,3.245-.124l2.475,1.52c.42.275,1.529.744,1.563,1.172.039.47-.354.49-.721.711a10.162,10.162,0,0,1-.969.465s-14.006,8.154-17.66,10.307c-1.457.859-2.9,1.735-4.51,2.7,1.275.723,2.34,1.319,3.4,1.929a5.326,5.326,0,0,0,5.76-.049c6.872-4.013,13.774-7.975,20.669-11.949A14.985,14.985,0,0,0,72.8,18.908c1.186-1.243,1.174-2.36.037-3.661" transform="translate(-13.19 0)" fill="#fff"/>
    <path id="Path_167" data-name="Path 167" d="M343.247,52.3h-1.675L340.246,49.2H332.8L331.5,52.3h-1.675L335.8,38.34h1.465Zm-9.792-4.605h6.164l-3.071-7.257Z" transform="translate(-248.67 -28.906)" fill="#fff"/>
    <path id="Path_168" data-name="Path 168" d="M392.974,52.3V38.34H394.6V50.784h7.257V52.3Z" transform="translate(-296.279 -28.906)" fill="#fff"/>
    <path id="Path_169" data-name="Path 169" d="M450.6,41.364l-4.652,5.978h-.465l-4.652-5.884V52.3H439.2V38.34h1.14l5.373,6.838,5.373-6.838H452.2V52.3h-1.6Z" transform="translate(-331.132 -28.906)" fill="#fff"/>
    <path id="Path_170" data-name="Path 170" d="M514.069,52.3h-1.675L511.068,49.2h-7.443l-1.3,3.093h-1.675l5.978-13.956h1.465Zm-9.792-4.605h6.164l-3.071-7.257Z" transform="translate(-377.459 -28.906)" fill="#fff"/>
    <path id="Path_171" data-name="Path 171" d="M569.8,49.9a6.139,6.139,0,0,1-4.629,1.791c-4.14,0-6.954-3.21-6.954-7.28,0-4.117,2.814-7.3,6.954-7.3A6.139,6.139,0,0,1,569.8,38.9l-.93,1.256a5.33,5.33,0,0,0-3.675-1.512c-3.14,0-5.3,2.605-5.3,5.768,0,3.14,2.163,5.745,5.3,5.745a5.331,5.331,0,0,0,3.675-1.512Z" transform="translate(-420.865 -27.98)" fill="#fff"/>
    <path id="Path_172" data-name="Path 172" d="M624.111,45.992h-6.978v4.791H625.3V52.3h-9.792V38.34H625.3v1.512h-8.164V44.48h6.978Z" transform="translate(-464.055 -28.906)" fill="#fff"/>
    <path id="Path_173" data-name="Path 173" d="M678.585,52.3h-1.163L668.56,41.224V52.3h-1.628V38.34h1.186l8.839,11.025V38.34h1.628Z" transform="translate(-502.828 -28.906)" fill="#fff"/>
    <path id="Path_174" data-name="Path 174" d="M738.4,45.992h-6.978v4.791h8.164V52.3H729.8V38.34h9.792v1.512h-8.164V44.48H738.4Z" transform="translate(-550.224 -28.906)" fill="#fff"/>
    <path id="Path_175" data-name="Path 175" d="M778.325,48.811a5.994,5.994,0,0,0,4,1.349c2.419,0,3.442-.977,3.442-2.4,0-1.3-.791-1.953-3.675-2.814-3.21-.977-4.629-1.977-4.629-4.094,0-2.279,1.884-3.745,4.954-3.745,3.256,0,4.582,1.372,4.582,1.372l-.884,1.349a5.517,5.517,0,0,0-3.7-1.186c-1.884,0-3.28.768-3.28,2.21,0,1.14.861,1.721,3.675,2.558,3.535,1.024,4.629,2.256,4.629,4.326,0,2.256-1.721,3.954-5.094,3.954a6.837,6.837,0,0,1-4.908-1.651Z" transform="translate(-586.145 -27.98)" fill="#fff"/>
    <path id="Path_176" data-name="Path 176" d="M339.781,250.991l-2.625,3.373h-.263l-2.625-3.321v6.117h-.919v-7.876h.643l3.032,3.859,3.032-3.859h.63v7.876h-.906Z" transform="translate(-251.326 -187.946)" fill="#fff"/>
    <path id="Path_177" data-name="Path 177" d="M375.6,257.161h-.945l-.748-1.746h-4.2l-.735,1.746h-.945l3.373-7.876h.827Zm-5.526-2.6h3.479l-1.733-4.1Z" transform="translate(-277.471 -187.946)" fill="#fff"/>
    <path id="Path_178" data-name="Path 178" d="M402.279,249.285h1.063l-2.9,4.856v3.019h-.919v-3.019l-2.9-4.856H397.7l2.047,3.518.237.5h.026l.249-.5Z" transform="translate(-299.03 -187.946)" fill="#fff"/>
    <path id="Path_179" data-name="Path 179" d="M425.056,252.712a3.9,3.9,0,1,1,3.885,4.108,3.849,3.849,0,0,1-3.885-4.108m6.852,0a2.965,2.965,0,1,0-2.966,3.229,3.012,3.012,0,0,0,2.966-3.229" transform="translate(-320.467 -187.423)" fill="#fff"/>
    <path id="Path_180" data-name="Path 180" d="M466.393,249.284c1.877,0,3.006.919,3.006,2.625a2.413,2.413,0,0,1-1.785,2.467v.04l1.956,2.52v.223h-.958l-2.034-2.612h-2.35v2.612h-.919v-7.876Zm-.013.853h-2.153v3.557h2.258c1.155,0,1.969-.551,1.969-1.759s-.814-1.8-2.074-1.8" transform="translate(-349.307 -187.946)" fill="#fff"/>
    <rect id="Rectangle_1091" data-name="Rectangle 1091" width="0.919" height="7.876" transform="translate(121.851 61.338)" fill="#fff"/>
    <path id="Path_181" data-name="Path 181" d="M506.059,255.193a3.382,3.382,0,0,0,2.258.761c1.365,0,1.943-.551,1.943-1.352,0-.735-.446-1.1-2.074-1.588-1.812-.551-2.612-1.116-2.612-2.31,0-1.286,1.063-2.113,2.8-2.113a3.663,3.663,0,0,1,2.586.774l-.5.761a3.112,3.112,0,0,0-2.087-.67c-1.063,0-1.851.433-1.851,1.247,0,.643.486.971,2.074,1.444,2,.578,2.612,1.273,2.612,2.442,0,1.273-.971,2.231-2.874,2.231a3.857,3.857,0,0,1-2.77-.932Z" transform="translate(-381.163 -187.423)" fill="#fff"/>
    <path id="Path_182" data-name="Path 182" d="M531.807,249.285h6.156v.853h-2.625v7.022h-.919v-7.022h-2.612Z" transform="translate(-400.952 -187.946)" fill="#fff"/>
    <path id="Path_183" data-name="Path 183" d="M562.854,257.161h-.945l-.748-1.746h-4.2l-.735,1.746h-.945l3.373-7.876h.827Zm-5.526-2.6h3.479l-1.733-4.1Z" transform="translate(-418.649 -187.946)" fill="#fff"/>
    <path id="Path_184" data-name="Path 184" d="M588.7,255.193a3.383,3.383,0,0,0,2.258.761c1.365,0,1.942-.551,1.942-1.352,0-.735-.446-1.1-2.074-1.588-1.812-.551-2.612-1.116-2.612-2.31,0-1.286,1.064-2.113,2.8-2.113a3.663,3.663,0,0,1,2.586.774l-.5.761a3.112,3.112,0,0,0-2.087-.67c-1.063,0-1.851.433-1.851,1.247,0,.643.486.971,2.074,1.444,2,.578,2.612,1.273,2.612,2.442,0,1.273-.971,2.231-2.874,2.231a3.857,3.857,0,0,1-2.77-.932Z" transform="translate(-443.466 -187.423)" fill="#fff"/>
    <rect id="Rectangle_1092" data-name="Rectangle 1092" width="3.675" height="0.761" transform="translate(154.576 65.828)" fill="#fff"/>
    <rect id="Rectangle_1093" data-name="Rectangle 1093" width="0.919" height="7.876" transform="translate(163.043 61.338)" fill="#fff"/>
    <path id="Path_185" data-name="Path 185" d="M681.533,250.991l-2.625,3.373h-.263l-2.625-3.321v6.117H675.1v-7.876h.643l3.032,3.859,3.032-3.859h.63v7.876h-.906Z" transform="translate(-508.987 -187.946)" fill="#fff"/>
    <path id="Path_186" data-name="Path 186" d="M719.763,251.909c0,1.785-1.195,2.73-3.045,2.73h-2.126v2.52h-.919v-7.876h3.1c1.864,0,2.993.919,2.993,2.625m-3.019-1.772h-2.153v3.649h2.153c1.273,0,2.087-.538,2.087-1.851,0-1.221-.827-1.8-2.087-1.8" transform="translate(-538.068 -187.946)" fill="#fff"/>
    <path id="Path_187" data-name="Path 187" d="M742.321,252.712a3.9,3.9,0,1,1,3.885,4.108,3.849,3.849,0,0,1-3.885-4.108m6.852,0a2.965,2.965,0,1,0-2.967,3.229,3.012,3.012,0,0,0,2.967-3.229" transform="translate(-559.667 -187.423)" fill="#fff"/>
    <path id="Path_188" data-name="Path 188" d="M783.658,249.284c1.877,0,3.006.919,3.006,2.625a2.413,2.413,0,0,1-1.785,2.467v.04l1.956,2.52v.223h-.958l-2.034-2.612h-2.35v2.612h-.919v-7.876Zm-.013.853h-2.152v3.557h2.258c1.155,0,1.969-.551,1.969-1.759s-.814-1.8-2.074-1.8" transform="translate(-588.506 -187.946)" fill="#fff"/>
    <path id="Path_189" data-name="Path 189" d="M808.741,249.285H814.9v.853h-2.625v7.022h-.919v-7.022h-2.612Z" transform="translate(-609.744 -187.946)" fill="#fff"/>
    <path id="Path_190" data-name="Path 190" d="M839.789,257.161h-.945l-.748-1.746h-4.2l-.735,1.746h-.945l3.373-7.876h.827Zm-5.526-2.6h3.479l-1.733-4.1Z" transform="translate(-627.442 -187.946)" fill="#fff"/>
    <path id="Path_191" data-name="Path 191" d="M870.477,257.16h-2.625v-7.876h2.625a3.938,3.938,0,1,1,0,7.876m-1.706-7.022v6.169h1.654a3.085,3.085,0,1,0,0-6.169Z" transform="translate(-654.31 -187.946)" fill="#fff"/>
    <path id="Path_192" data-name="Path 192" d="M899.327,252.712a3.9,3.9,0,1,1,3.885,4.108,3.849,3.849,0,0,1-3.885-4.108m6.852,0a2.965,2.965,0,1,0-2.967,3.229,3.013,3.013,0,0,0,2.967-3.229" transform="translate(-678.04 -187.423)" fill="#fff"/>
    <path id="Path_193" data-name="Path 193" d="M940.663,249.284c1.877,0,3.006.919,3.006,2.625a2.413,2.413,0,0,1-1.785,2.467v.04l1.956,2.52v.223h-.958l-2.034-2.612H938.5v2.612h-.919v-7.876Zm-.013.853H938.5v3.557h2.258c1.155,0,1.969-.551,1.969-1.759s-.814-1.8-2.074-1.8" transform="translate(-706.879 -187.946)" fill="#fff"/>
    <path id="Path_194" data-name="Path 194" d="M974.337,253.6H970.4v2.7h4.607v.853h-5.526v-7.876h5.526v.853H970.4v2.612h3.938Z" transform="translate(-730.932 -187.946)" fill="#fff"/>
    <path id="Path_195" data-name="Path 195" d="M996.867,255.193a3.382,3.382,0,0,0,2.258.761c1.365,0,1.943-.551,1.943-1.352,0-.735-.446-1.1-2.074-1.588-1.812-.551-2.612-1.116-2.612-2.31,0-1.286,1.063-2.113,2.8-2.113a3.663,3.663,0,0,1,2.586.774l-.5.761a3.113,3.113,0,0,0-2.087-.67c-1.063,0-1.851.433-1.851,1.247,0,.643.486.971,2.074,1.444,1.995.578,2.612,1.273,2.612,2.442,0,1.273-.971,2.231-2.875,2.231a3.857,3.857,0,0,1-2.77-.932Z" transform="translate(-751.203 -187.423)" fill="#fff"/>
    <path id="Path_196" data-name="Path 196" d="M336.323,140.222a12.318,12.318,0,0,0,6.569,2.268c2.5,0,3.6-1.056,3.6-2.62,0-1.525-.9-2.307-4.692-3.441-5.083-1.486-7.742-3.363-7.742-7.116,0-4.105,2.972-6.96,8.8-6.96,6.1,0,8.485,2.424,8.485,2.424l-2.542,3.871a9.954,9.954,0,0,0-5.943-1.955c-2.307,0-3.48.9-3.48,2.346,0,1.407,1.173,2.033,4.5,3.05,5.435,1.525,8.054,3.558,8.054,7.351,0,4.106-2.854,7.39-8.876,7.39-6.217,0-9.306-3.011-9.306-3.011Z" transform="translate(-251.623 -92.247)" fill="#fff"/>
    <path id="Path_197" data-name="Path 197" d="M434.069,147.879h-5.044l-1.681-4.536H417.217l-1.681,4.536h-5.044l9.306-23.46h4.965Zm-15.445-8.367h7.312l-3.676-9.853Z" transform="translate(-309.487 -93.805)" fill="#fff"/>
    <path id="Path_198" data-name="Path 198" d="M537.4,147.879H533.76l-12.395-15.21v15.21h-4.731v-23.46h3.636l12.395,15.053V124.419H537.4Z" transform="translate(-389.512 -93.805)" fill="#fff"/>
    <path id="Path_199" data-name="Path 199" d="M615.627,124.419h18.69v4.145h-7v19.315h-4.731V128.564h-6.96Z" transform="translate(-464.147 -93.805)" fill="#fff"/>
    <path id="Path_200" data-name="Path 200" d="M696.982,134.591c0-6.764,4.809-12.238,11.886-12.238,7.156,0,11.925,5.474,11.925,12.238s-4.77,12.277-11.925,12.277c-7.077,0-11.886-5.513-11.886-12.277m18.925,0c0-4.457-2.933-7.7-7.038-7.7-4.027,0-6.96,3.245-6.96,7.7s2.932,7.7,6.96,7.7c4.105,0,7.038-3.246,7.038-7.7" transform="translate(-525.484 -92.247)" fill="#fff"/>
    <path id="Path_201" data-name="Path 201" d="M806.343,140.222a12.318,12.318,0,0,0,6.569,2.268c2.5,0,3.6-1.056,3.6-2.62,0-1.525-.9-2.307-4.692-3.441-5.083-1.486-7.742-3.363-7.742-7.116,0-4.105,2.972-6.96,8.8-6.96,6.1,0,8.485,2.424,8.485,2.424l-2.542,3.871a9.954,9.954,0,0,0-5.943-1.955c-2.307,0-3.48.9-3.48,2.346,0,1.407,1.173,2.033,4.5,3.05,5.435,1.525,8.054,3.558,8.054,7.351,0,4.106-2.854,7.39-8.876,7.39-6.217,0-9.306-3.011-9.306-3.011Z" transform="translate(-605.99 -92.247)" fill="#fff"/>
    <path id="Path_202" data-name="Path 202" d="M925.954,147.879v-23.46h4.731v19.315h11.026v4.145Z" transform="translate(-698.115 -93.805)" fill="#fff"/>
    <path id="Path_203" data-name="Path 203" d="M1000.474,202a2.737,2.737,0,1,1,5.474,0,2.737,2.737,0,0,1-5.474,0" transform="translate(-754.299 -150.233)" fill="#fff"/>
  </g>
</svg>
