<svg id="logo-color" xmlns="http://www.w3.org/2000/svg" xmlns:xlink="http://www.w3.org/1999/xlink" width="177.763" height="52.935" viewBox="0 0 177.763 52.935">
  <defs>
    <clipPath id="clip-path">
      <rect id="Rectangle_135" data-name="Rectangle 135" width="177.763" height="52.935" fill="none"/>
    </clipPath>
    <clipPath id="clip-path-2">
      <rect id="Rectangle_132" data-name="Rectangle 132" width="85.108" height="17.165" fill="none"/>
    </clipPath>
    <clipPath id="clip-path-3">
      <rect id="Rectangle_134" data-name="Rectangle 134" width="120.926" height="28.853" fill="none"/>
    </clipPath>
  </defs>
  <g id="Group_98" data-name="Group 98" clip-path="url(#clip-path)">
    <path id="Path_45" data-name="Path 45" d="M191.71,245.936l0,0s0,.005,0,.007l.024.01Zm0,0,0,0s0,.005,0,.007l.024.01Zm0,0,0,0s0,.005,0,.007l.024.01Zm-6.37,7.8.012-.009v-.005Zm6.37-7.8,0,0s0,.005,0,.007l.024.01Z" transform="translate(-153.319 -203.444)" fill="#0e477d"/>
    <path id="Path_46" data-name="Path 46" d="M22.057,106.111a1.991,1.991,0,0,0-.677-1.69l-.005-.005a2.915,2.915,0,0,0-.487-.461q-4.45-2.581-8.908-5.143l-.007,0c-2.009-1.194-4-2.412-6.03-3.573A19.829,19.829,0,0,0,2.322,93.28a1.6,1.6,0,0,0-2.3,1.665c0,7.569.016,15.136-.024,22.705a1.735,1.735,0,0,0,.978,1.719c3.023,1.742,6.03,3.514,9.051,5.259,1.935,1.116,3.889,2.2,5.834,3.3,1.018.6,2.013,1.254,3.063,1.8a1.881,1.881,0,0,0,2.453-.468,1.884,1.884,0,0,0,.677-1.679q.013-10.737,0-21.47M16.58,124.52c-1.144-.656-2.275-1.313-3.416-1.951-.193-.109-.187-.259-.206-.428-.036-.342-.06-.713-.082-1.042-.046-.668-.092-1.423-.107-1.77-.025-.589-.2-.629-.646-.911-.33-.209-3.419-1.74-4.289-2.291-.385-.245-.618-.231-.857.157-.3.48-.531.828-.855,1.368s-.57.553-1.011.292c-.8-.475-1.591-.966-2.4-1.415-.454-.251-.43-.465-.147-.867q4.209-5.984,8.372-12c.292-.423.5-.411.885-.157a17.829,17.829,0,0,0,2.08,1.206,1.458,1.458,0,0,1,.866,1.342c.309,3.288.622,6.572.969,9.855.294,2.788.634,5.572.95,8.358a.4.4,0,0,1,0,.221.072.072,0,0,1-.1.034" transform="translate(0 -77.056)" fill="#0e477d"/>
    <path id="Path_47" data-name="Path 47" d="M196.823,74.643l0,0v0Z" transform="translate(-162.816 -61.747)" fill="#f5fafa"/>
    <path id="Path_48" data-name="Path 48" d="M196.823,74.643l0,0v0Z" transform="translate(-162.816 -61.747)" fill="#f5fafa"/>
    <path id="Path_49" data-name="Path 49" d="M222.215,245.982l-.045-.026.007,0,.017.014.005,0Z" transform="translate(-183.786 -203.46)" fill="#f5fafa"/>
    <path id="Path_50" data-name="Path 50" d="M222.194,245.967l-.024-.01.007,0Z" transform="translate(-183.786 -203.46)" fill="#224a71"/>
    <path id="Path_51" data-name="Path 51" d="M187.5,266.2h0s0,0,0,0" transform="translate(-155.104 -220.208)" fill="#224a71"/>
    <path id="Path_52" data-name="Path 52" d="M165.055,117.326c0-7.239,0-14.123,0-21.361a2.589,2.589,0,0,0-.634-1.776c-.559-.633-1.5-1.161-3.1-.229-5.2,3.018-10.4,6.021-15.584,9.058a8.958,8.958,0,0,0-2.559,1.691,1.611,1.611,0,0,0-.534,1.375q.008,11.037,0,22.075a1.842,1.842,0,0,0,.2.91c.71,1.315,2.127,1.5,3.588.456.869-.458,15.674-9.04,17.249-9.951a2.6,2.6,0,0,0,1.375-2.248m-4.862.238c-.633.357-3.137,1.8-5.657,3.256-2.588,1.5-5.186,3.017-5.375,3.168-.523.289-.708.18-.708-.461.005-5.463-.022-10.926-.038-16.389,0-.28-.052-.563.275-.748,1.441-.812,2.871-1.641,4.43-2.536v12.47c2.419-1.417,4.675-2.74,6.931-4.064.634-.351.793-.114.772.546q-.062,1.843,0,3.687a1.049,1.049,0,0,1-.632,1.071" transform="translate(-117.996 -77.309)" fill="#0e477d"/>
    <path id="Path_53" data-name="Path 53" d="M56.224,191.246c-.736-.437-1.484-.853-2.225-1.28-.266-.15-.484-.289-.237-.658.788-1.183,1.55-2.382,2.322-3.575.078.01.154.021.23.033q.2,2.591.4,5.181c.031.42-.116.522-.492.3" transform="translate(-44.384 -153.644)" fill="#224a71"/>
    <path id="Path_54" data-name="Path 54" d="M56.356,10.705a7.434,7.434,0,0,0-1.807-1.581c-2.567-1.51-5.152-2.994-7.726-4.494a.972.972,0,0,0-1.116.01c-.779.484-1.595.905-2.388,1.363C38.7,8.67,34.086,11.327,29.487,14.017a1.438,1.438,0,0,1-1.724-.007c-.786-.523-1.619-.978-2.433-1.458-.936-.553-.935-.584.012-1.133q7.217-4.18,14.431-8.364c.463-.27.878-.622,1.344-.886a.877.877,0,0,0,.168-.119l.352-.211c-.1-.057-.2-.114-.3-.171-.765-.432-1.429-.8-2.085-1.182-.031-.019-.064-.036-.1-.054-1.325-.729-2.353-.475-3.69.306-1.69.987-16.636,9.725-17.431,10.435a1.142,1.142,0,0,0-.045,1.916,7.583,7.583,0,0,0,1.6,1.158c2.771,1.624,5.549,3.236,8.31,4.874a1.172,1.172,0,0,0,1.348.005c1.653-.969,3.331-1.9,5-2.845.079-.043,10.041-5.855,10.306-6.014,1.36-.815,1.313-.778,2.278-.087l1.738,1.067c.295.193,1.073.523,1.1.823.027.33-.249.344-.506.5a7.135,7.135,0,0,1-.681.327s-9.834,5.726-12.4,7.237c-1.023.6-2.037,1.218-3.167,1.894.895.508,1.643.926,2.384,1.354a3.739,3.739,0,0,0,4.044-.035c4.825-2.818,9.672-5.6,14.512-8.39a10.522,10.522,0,0,0,2.476-1.681,1.656,1.656,0,0,0,.026-2.571" transform="translate(-14.472 0)" fill="#ab1b1e"/>
    <g id="Group_91" data-name="Group 91" transform="translate(56.836 8.045)" style="isolation: isolate">
      <g id="Group_90" data-name="Group 90">
        <g id="Group_89" data-name="Group 89" clip-path="url(#clip-path-2)">
          <text id="ALMACENES" transform="translate(0 12.926)" fill="#0e477d" font-size="15" font-family="Texta-Regular, Texta"><tspan x="0" y="0">ALM</tspan><tspan y="0" letter-spacing="-0.017em">A</tspan><tspan y="0">CENES</tspan></text>
        </g>
      </g>
    </g>
    <g id="Group_97" data-name="Group 97" transform="translate(56.836 20.038)" style="isolation: isolate">
      <g id="Group_96" data-name="Group 96">
        <g id="Group_95" data-name="Group 95" clip-path="url(#clip-path-3)">
          <text id="SANTOS_L." data-name="SANTOS L." transform="translate(0 20.729)" fill="#0e477d" font-size="25" font-family="Texta-Heavy, Texta" font-weight="800"><tspan x="0" y="0" letter-spacing="-0.009em">S</tspan><tspan y="0">AN</tspan><tspan y="0" letter-spacing="-0.021em">T</tspan><tspan y="0">OS L.</tspan></text>
        </g>
      </g>
    </g>
  </g>
</svg>
