<svg xmlns="http://www.w3.org/2000/svg" width="164.45" height="52.897" viewBox="0 0 164.45 52.897">
  <g id="asl-logo-color" transform="translate(0 0)">
    <path id="Path_110" data-name="Path 110" d="M191.705,245.936l0,0s0,.005,0,.007l.024.01Zm0,0,0,0s0,.005,0,.007l.024.01Zm0,0,0,0s0,.005,0,.007l.024.01Zm-6.365,7.793.012-.009v-.005Zm6.365-7.793,0,0s0,.005,0,.007l.024.01Z" transform="translate(-153.342 -203.474)" fill="#0e477d"/>
    <path id="Path_111" data-name="Path 111" d="M22.041,106.1a1.99,1.99,0,0,0-.677-1.688l-.005-.005a2.914,2.914,0,0,0-.487-.461q-4.446-2.579-8.9-5.14l-.007,0c-2.008-1.193-4-2.41-6.025-3.57A19.815,19.815,0,0,0,2.32,93.28a1.6,1.6,0,0,0-2.3,1.664c0,7.564.016,15.125-.024,22.689a1.734,1.734,0,0,0,.977,1.718C4,121.091,7,122.863,10.022,124.606c1.934,1.115,3.886,2.2,5.83,3.3,1.017.6,2.011,1.253,3.061,1.8a1.879,1.879,0,0,0,2.452-.468,1.882,1.882,0,0,0,.677-1.678q.013-10.729,0-21.455m-5.473,18.4c-1.143-.656-2.274-1.312-3.413-1.949-.193-.109-.186-.259-.205-.428-.036-.342-.06-.713-.082-1.041-.046-.668-.092-1.422-.107-1.769-.025-.589-.2-.628-.645-.911-.329-.209-3.416-1.738-4.286-2.289-.385-.245-.618-.231-.856.157-.3.48-.531.828-.855,1.367s-.57.552-1.01.292c-.8-.475-1.59-.965-2.4-1.414-.454-.25-.43-.464-.147-.867q4.206-5.98,8.366-11.994c.292-.423.5-.411.884-.157a17.817,17.817,0,0,0,2.079,1.205,1.457,1.457,0,0,1,.865,1.341c.309,3.285.622,6.567.969,9.848.293,2.787.634,5.568.95,8.353a.4.4,0,0,1,0,.221.072.072,0,0,1-.1.034" transform="translate(0 -77.068)" fill="#0e477d"/>
    <path id="Path_112" data-name="Path 112" d="M196.823,74.643l0,0v0Z" transform="translate(-162.84 -61.756)" fill="#f5fafa"/>
    <path id="Path_113" data-name="Path 113" d="M196.823,74.643l0,0v0Z" transform="translate(-162.84 -61.756)" fill="#f5fafa"/>
    <path id="Path_114" data-name="Path 114" d="M222.215,245.982l-.045-.026.007,0,.017.014.005,0Z" transform="translate(-183.813 -203.49)" fill="#f5fafa"/>
    <path id="Path_115" data-name="Path 115" d="M222.194,245.967l-.024-.01.007,0Z" transform="translate(-183.813 -203.49)" fill="#224a71"/>
    <path id="Path_116" data-name="Path 116" d="M187.5,266.2h0s0,0,0,0" transform="translate(-155.127 -220.241)" fill="#224a71"/>
    <path id="Path_117" data-name="Path 117" d="M165.039,117.31c0-7.234,0-14.113,0-21.346a2.587,2.587,0,0,0-.634-1.775c-.559-.632-1.5-1.16-3.1-.229-5.191,3.016-10.392,6.017-15.573,9.052a8.951,8.951,0,0,0-2.557,1.69,1.61,1.61,0,0,0-.533,1.374q.008,11.029,0,22.059a1.841,1.841,0,0,0,.2.91c.71,1.314,2.125,1.5,3.586.456.868-.458,15.663-9.033,17.237-9.944a2.6,2.6,0,0,0,1.374-2.246m-4.858.238c-.632.357-3.135,1.795-5.653,3.254-2.586,1.5-5.183,3.015-5.372,3.165-.523.288-.708.18-.708-.461.005-5.459-.022-10.918-.038-16.377,0-.28-.052-.563.275-.748,1.44-.811,2.869-1.64,4.427-2.534v12.462c2.417-1.416,4.672-2.738,6.927-4.061.634-.35.792-.114.772.546q-.062,1.841,0,3.684a1.048,1.048,0,0,1-.632,1.07" transform="translate(-118.014 -77.321)" fill="#0e477d"/>
    <path id="Path_118" data-name="Path 118" d="M56.222,191.242c-.735-.437-1.483-.853-2.224-1.279-.266-.15-.483-.288-.237-.658.787-1.183,1.549-2.381,2.32-3.572.078.01.154.021.23.033q.2,2.59.4,5.178c.031.42-.116.521-.492.3" transform="translate(-44.391 -153.667)" fill="#224a71"/>
    <path id="Path_119" data-name="Path 119" d="M56.328,10.7a7.428,7.428,0,0,0-1.806-1.58C51.957,7.609,49.374,6.126,46.8,4.628a.971.971,0,0,0-1.115.01c-.779.483-1.594.9-2.386,1.362-4.611,2.664-9.226,5.319-13.822,8.007A1.437,1.437,0,0,1,27.756,14c-.786-.523-1.618-.977-2.431-1.457-.936-.552-.934-.584.012-1.133q7.212-4.177,14.421-8.358c.463-.269.877-.622,1.343-.886a.876.876,0,0,0,.167-.119l.352-.211c-.1-.057-.2-.114-.3-.171-.765-.432-1.428-.8-2.084-1.181-.031-.019-.064-.036-.095-.054C37.819-.3,36.792-.042,35.456.738c-1.688.986-16.624,9.718-17.419,10.428a1.141,1.141,0,0,0-.045,1.915,7.577,7.577,0,0,0,1.6,1.157c2.769,1.623,5.546,3.234,8.3,4.87a1.171,1.171,0,0,0,1.347.005c1.652-.969,3.329-1.9,5-2.843.079-.043,10.034-5.851,10.3-6.01,1.359-.815,1.312-.777,2.277-.087l1.737,1.066c.295.193,1.072.522,1.1.823.027.33-.248.344-.506.5a7.132,7.132,0,0,1-.68.326s-9.827,5.721-12.391,7.232c-1.022.6-2.035,1.217-3.165,1.892.894.508,1.642.925,2.383,1.354a3.737,3.737,0,0,0,4.042-.035c4.822-2.816,9.665-5.6,14.5-8.384a10.514,10.514,0,0,0,2.474-1.68,1.655,1.655,0,0,0,.026-2.569" transform="translate(-14.474 0)" fill="#ab1b1e"/>
    <g id="Group_143" data-name="Group 143" transform="translate(56.943 9.641)">
      <g id="Group_142" data-name="Group 142">
        <path id="Path_120" data-name="Path 120" d="M338.289,47.141h-1.056L336.4,45.19H331.7l-.821,1.951h-1.056l3.769-8.8h.924Zm-6.175-2.9H336l-1.936-4.576Z" transform="translate(-329.826 -38.151)" fill="#0e477d"/>
        <path id="Path_121" data-name="Path 121" d="M392.973,47.141v-8.8H394v7.847h4.576v.953Z" transform="translate(-383.175 -38.15)" fill="#0e477d"/>
        <path id="Path_122" data-name="Path 122" d="M446.388,40.248l-2.933,3.769h-.293l-2.933-3.711v6.835H439.2v-8.8h.719l3.388,4.312,3.388-4.312h.7v8.8h-1.012Z" transform="translate(-422.231 -38.151)" fill="#0e477d"/>
        <path id="Path_123" data-name="Path 123" d="M509.111,47.141h-1.056l-.836-1.951h-4.693l-.821,1.951h-1.056l3.769-8.8h.924Zm-6.175-2.9h3.887l-1.936-4.576Z" transform="translate(-474.144 -38.151)" fill="#0e477d"/>
        <path id="Path_124" data-name="Path 124" d="M565.523,45.18a3.871,3.871,0,0,1-2.919,1.129,4.356,4.356,0,0,1-4.385-4.591,4.352,4.352,0,0,1,4.385-4.605,3.871,3.871,0,0,1,2.919,1.129l-.587.792a3.361,3.361,0,0,0-2.317-.953,3.424,3.424,0,0,0-3.344,3.637,3.42,3.42,0,0,0,3.344,3.623,3.362,3.362,0,0,0,2.317-.953Z" transform="translate(-522.783 -37.113)" fill="#0e477d"/>
        <path id="Path_125" data-name="Path 125" d="M620.932,43.166h-4.4v3.021h5.148v.953H615.5v-8.8h6.175v.953h-5.148v2.918h4.4Z" transform="translate(-571.18 -38.15)" fill="#0e477d"/>
        <path id="Path_126" data-name="Path 126" d="M674.279,47.141h-.733l-5.588-6.981v6.981h-1.027v-8.8h.748l5.573,6.952V38.341h1.027Z" transform="translate(-614.628 -38.15)" fill="#0e477d"/>
        <path id="Path_127" data-name="Path 127" d="M735.222,43.166h-4.4v3.021h5.148v.953H729.8v-8.8h6.175v.953h-5.148v2.918h4.4Z" transform="translate(-667.738 -38.15)" fill="#0e477d"/>
        <path id="Path_128" data-name="Path 128" d="M778,44.489a3.779,3.779,0,0,0,2.523.851c1.525,0,2.171-.616,2.171-1.511,0-.821-.5-1.232-2.317-1.775-2.024-.616-2.919-1.247-2.919-2.581,0-1.437,1.188-2.361,3.124-2.361a4.093,4.093,0,0,1,2.889.865l-.557.851a3.479,3.479,0,0,0-2.332-.748c-1.188,0-2.068.484-2.068,1.393,0,.719.543,1.085,2.317,1.613,2.229.645,2.919,1.423,2.919,2.728,0,1.423-1.085,2.493-3.212,2.493a4.311,4.311,0,0,1-3.095-1.041Z" transform="translate(-707.99 -37.112)" fill="#0e477d"/>
      </g>
      <g id="Group_141" data-name="Group 141" transform="translate(0.608 13.226)">
        <path id="Path_149" data-name="Path 149" d="M335.37,133.621a7.767,7.767,0,0,0,4.142,1.43c1.578,0,2.268-.666,2.268-1.652,0-.961-.567-1.455-2.958-2.17-3.205-.937-4.882-2.12-4.882-4.487,0-2.589,1.874-4.389,5.547-4.389,3.846,0,5.35,1.529,5.35,1.529l-1.6,2.441a6.277,6.277,0,0,0-3.747-1.233c-1.455,0-2.194.567-2.194,1.479,0,.887.74,1.282,2.835,1.923,3.427.962,5.079,2.244,5.079,4.635,0,2.589-1.8,4.66-5.6,4.66a8.684,8.684,0,0,1-5.868-1.9Z" transform="translate(-333.743 -122.354)" fill="#0e477d"/>
        <path id="Path_150" data-name="Path 150" d="M425.358,139.213h-3.18l-1.06-2.86h-6.386l-1.06,2.86h-3.18l5.868-14.793h3.131Zm-9.739-5.276h4.611l-2.318-6.213Z" transform="translate(-398.583 -124.099)" fill="#0e477d"/>
        <path id="Path_151" data-name="Path 151" d="M529.726,139.213h-2.293l-7.816-9.591v9.591h-2.983V124.42h2.293l7.816,9.492V124.42h2.983Z" transform="translate(-488.257 -124.099)" fill="#0e477d"/>
        <path id="Path_152" data-name="Path 152" d="M615.626,124.42h11.785v2.613H623v12.18h-2.983v-12.18h-4.389Z" transform="translate(-571.891 -124.099)" fill="#0e477d"/>
        <path id="Path_153" data-name="Path 153" d="M696.982,130.071a7.511,7.511,0,1,1,7.5,7.742,7.407,7.407,0,0,1-7.5-7.742m11.933,0c0-2.811-1.849-4.857-4.438-4.857-2.539,0-4.388,2.046-4.388,4.857s1.849,4.857,4.388,4.857c2.589,0,4.438-2.047,4.438-4.857" transform="translate(-640.623 -122.354)" fill="#0e477d"/>
        <path id="Path_154" data-name="Path 154" d="M805.389,133.621a7.767,7.767,0,0,0,4.142,1.43c1.578,0,2.268-.666,2.268-1.652,0-.961-.567-1.455-2.959-2.17-3.205-.937-4.882-2.12-4.882-4.487,0-2.589,1.874-4.389,5.547-4.389,3.846,0,5.35,1.529,5.35,1.529l-1.6,2.441a6.276,6.276,0,0,0-3.747-1.233c-1.455,0-2.194.567-2.194,1.479,0,.887.74,1.282,2.835,1.923,3.427.962,5.079,2.244,5.079,4.635,0,2.589-1.8,4.66-5.6,4.66a8.684,8.684,0,0,1-5.868-1.9Z" transform="translate(-730.836 -122.354)" fill="#0e477d"/>
        <path id="Path_155" data-name="Path 155" d="M925.954,139.213V124.42h2.983V136.6h6.953v2.613Z" transform="translate(-834.069 -124.099)" fill="#0e477d"/>
        <path id="Path_156" data-name="Path 156" d="M1000.474,200.99a1.726,1.726,0,1,1,3.452,0,1.726,1.726,0,0,1-3.452,0" transform="translate(-897.027 -187.331)" fill="#0e477d"/>
      </g>
    </g>
  </g>
</svg>
